<svg 
  xmlns="http://www.w3.org/2000/svg" 
  viewBox="0 0 512 512" 
>
  <defs>
    <linearGradient id="biliVMangaGrad" x1="0%" y1="0%" x2="100%" y2="100%">
      <stop offset="0%" stop-color="#FF85A8" />
      <stop offset="100%" stop-color="#A87BF4" />
    </linearGradient>
    
    <filter id="softShadow" x="-10%" y="-10%" width="120%" height="120%">
      <feDropShadow dx="0" dy="16" stdDeviation="24" flood-color="#A87BF4" flood-opacity="0.35"/>
    </filter>
  </defs>

  <rect x="40" y="40" width="432" height="432" rx="120" fill="url(#biliVMangaGrad)" filter="url(#softShadow)" />

  <g transform="rotate(-3, 256, 256)">
    
    <path 
      d="M360 144H152c-26.5 0-48 21.5-48 48v128c0 26.5 21.5 48 48 48h48v48l64-48h96c26.5 0 48-21.5 48-48V192c0-26.5-21.5-48-48-48z" 
      fill="#FFFFFF" 
    />
    
    <path 
      d="M232 186l84 48-84 48z" 
      fill="url(#biliVMangaGrad)" 
      stroke="url(#biliVMangaGrad)" 
      stroke-width="16" 
      stroke-linejoin="round" 
      stroke-linecap="round" 
    />
    
    <path d="M390 100 Q390 120 410 120 Q390 120 390 140 Q390 120 370 120 Q390 120 390 100 Z" fill="#FFFFFF" opacity="0.9" />
    
    <path d="M120 370 Q120 385 140 385 Q120 385 120 400 Q120 385 100 385 Q120 385 120 370 Z" fill="#FFFFFF" opacity="0.7" />
    
  </g>
</svg>